<svg width="25" height="24" viewBox="0 0 25 24" fill="none" xmlns="http://www.w3.org/2000/svg">
<path d="M16.1352 3.98851C15.5912 3.88801 15.0915 4.23519 14.988 4.76624C14.8844 5.29729 15.2327 5.81578 15.7619 5.91971C17.3553 6.23035 18.5857 7.46376 18.8975 9.06263V9.06377C18.9863 9.52401 19.3915 9.85863 19.8581 9.85863C19.9207 9.85863 19.9833 9.85292 20.047 9.8415C20.5763 9.73529 20.9245 9.21795 20.821 8.68575C20.3555 6.29773 18.5174 4.45332 16.1352 3.98851Z" fill="#6F65CA"/>
<path d="M16.0636 0.00906239C15.8086 -0.0274832 15.5525 0.047892 15.3488 0.210063C15.1394 0.374518 15.0085 0.612064 14.9801 0.878161C14.9197 1.41607 15.3078 1.90258 15.8451 1.96311C19.5497 2.37653 22.4292 5.26249 22.8458 8.97871C22.9016 9.47664 23.3193 9.85238 23.8178 9.85238C23.8553 9.85238 23.8918 9.85009 23.9293 9.84553C24.19 9.81697 24.4221 9.68792 24.586 9.48236C24.7488 9.27679 24.8228 9.02097 24.7932 8.75944C24.2742 4.12272 20.6856 0.524126 16.0636 0.00906239Z" fill="#6F65CA"/>
<path fill-rule="evenodd" clip-rule="evenodd" d="M12.2086 12.5967C17.2474 17.6341 18.3905 11.8064 21.5988 15.0124C24.6918 18.1045 26.4695 18.724 22.5507 22.6418C22.0598 23.0362 18.941 27.7822 7.9806 16.8248C-2.98119 5.86611 1.76205 2.74414 2.15664 2.25341C6.08493 -1.67514 6.69377 0.112905 9.78677 3.20505C12.995 6.41242 7.16972 7.55926 12.2086 12.5967Z" fill="#6F65CA"/>
</svg>
