<svg width="36" height="36" viewBox="0 0 36 36" fill="none" xmlns="http://www.w3.org/2000/svg">
<path d="M25.8009 0C31.9016 0 36 4.2806 36 10.6501V25.3499C36 31.7194 31.9016 36 25.7991 36H10.1991C4.09841 36 0 31.7194 0 25.3499V10.6501C0 4.2806 4.09841 0 10.1991 0H25.8009ZM27.7859 18.9901C25.8564 17.7864 24.3667 19.4768 23.9649 20.0173C23.5775 20.5393 23.2445 21.1152 22.8933 21.691C22.0354 23.1121 21.0525 24.7505 19.3511 25.7034C16.8786 27.0724 15.0016 25.8111 13.6513 24.8935C13.1445 24.5517 12.6521 24.2285 12.1616 24.013C10.9525 23.491 9.86468 24.0854 8.25012 26.1362C7.40303 27.208 6.56317 28.2706 5.71245 29.3294C5.20383 29.9628 5.3251 30.9399 6.01111 31.3635C7.10618 32.0378 8.44199 32.4 9.95156 32.4H25.1215C25.9776 32.4 26.8356 32.283 27.6537 32.0155C29.4964 31.4136 30.9589 30.0353 31.7227 28.2149C32.3671 26.6842 32.6802 24.8266 32.0775 23.2811C31.8766 22.7684 31.5761 22.291 31.1543 21.8712C30.0484 20.7734 29.0149 19.748 27.7859 18.9901ZM11.6979 7.2C9.21638 7.2 7.2 9.21911 7.2 11.7C7.2 14.1809 9.21638 16.2 11.6979 16.2C14.1777 16.2 16.1959 14.1809 16.1959 11.7C16.1959 9.21911 14.1777 7.2 11.6979 7.2Z" fill="#6F65CA"/>
</svg>
