<svg width="18" height="18" viewBox="0 0 18 18" fill="none" xmlns="http://www.w3.org/2000/svg">
<path d="M4.9525 1.09694e-06C1.98625 1.35626e-06 1.82058e-07 2.0825 4.5285e-07 5.18L1.07789e-06 12.3296C1.34792e-06 15.4184 1.98625 17.5 4.9525 17.5L12.5388 17.5C15.505 17.5 17.5 15.4184 17.5 12.3296L17.5 5.18C17.5 2.0825 15.505 1.74408e-07 12.5387 4.33726e-07L4.9525 1.09694e-06ZM8.75875 7.42087C9.17875 7.42087 9.52 7.77 9.52 8.19087L9.52 12.0584C9.52 12.4784 9.17875 12.8196 8.75875 12.8196C8.33 12.8196 7.98875 12.4784 7.98875 12.0584L7.98875 8.19087C7.98875 7.77 8.33 7.42087 8.75875 7.42087ZM8.74125 4.64713C9.17 4.64713 9.51125 4.98837 9.51125 5.41712C9.51125 5.83625 9.17 6.17837 8.75875 6.17837C8.32125 6.17837 7.98 5.83625 7.98 5.41713C7.98 4.98838 8.32125 4.64713 8.74125 4.64713Z" fill="#C8C4EB"/>
</svg>
