<svg width="30" height="18" viewBox="0 0 30 18" fill="none" xmlns="http://www.w3.org/2000/svg">
<path d="M15.3284 0.563085C14.959 0.762409 14.7286 1.14143 14.7286 1.55366V7.97279H2.05394C1.41395 7.97279 0.894531 8.48016 0.894531 9.10531C0.894531 9.73046 1.41395 10.2378 2.05394 10.2378H14.7286V16.657C14.7286 17.0707 14.959 17.4497 15.3284 17.6475C15.6979 17.8484 16.1493 17.8348 16.5064 17.6158L28.7745 10.0642C29.1115 9.8558 29.3156 9.4949 29.3156 9.10531C29.3156 8.71573 29.1115 8.35483 28.7745 8.14645L16.5064 0.594796C16.3178 0.480034 16.1029 0.421143 15.888 0.421143C15.6964 0.421143 15.5031 0.469463 15.3284 0.563085Z" fill="white"/>
</svg>
