<svg width="24" height="20" viewBox="0 0 24 20" fill="none" xmlns="http://www.w3.org/2000/svg">
<path d="M23.1698 10.045C23.628 10.045 24 10.4098 24 10.8602C24 11.3095 23.628 11.6732 23.1698 11.6732H22.0113V15.5564C22.0113 17.9077 20.0618 19.8182 17.6662 19.8182H15.9284C15.4691 19.8182 15.0971 19.4535 15.0971 19.0031C15.0971 18.5538 15.4691 18.189 15.9284 18.189H17.6662C19.1465 18.189 20.3509 17.0091 20.3509 15.5564V11.6732H17.4895V12.7547C17.5004 14.1079 16.3931 15.2141 15.0131 15.2269H8.98691C7.608 15.2141 6.50073 14.1079 6.51164 12.7547V11.6732H3.65018V15.5607C3.65018 17.008 4.85127 18.1858 6.32727 18.188L8.10327 18.189C8.56145 18.189 8.93345 18.5538 8.93345 19.0031C8.93236 19.4535 8.56145 19.8182 8.10218 19.8182L6.32509 19.8172C3.93491 19.815 1.98873 17.9055 1.98873 15.5607V11.6732H0.831273C0.373091 11.6732 0 11.3095 0 10.8602C0 10.4098 0.373091 10.045 0.831273 10.045H23.1698ZM15.0136 4.26478C15.6736 4.26478 16.3075 4.52473 16.7689 4.98793C17.2336 5.45541 17.4911 6.08335 17.49 6.73697V8.09554C17.4845 8.25494 17.3547 8.38438 17.1922 8.38865H6.80673C6.64527 8.38331 6.51545 8.25387 6.51209 8.09554V6.73697C6.50018 5.38374 7.60855 4.27869 8.98745 4.26478H15.0136ZM17.6657 0.182206C20.0625 0.182206 22.0108 2.09277 22.0108 4.443V6.46803C22.0108 6.91733 21.6399 7.28318 21.1807 7.28318C20.7225 7.28318 20.3505 6.91733 20.3505 6.46803V4.443C20.3505 2.99136 19.1461 1.81036 17.6657 1.81036H15.9279C15.4697 1.81036 15.0977 1.44665 15.0977 0.997352C15.0977 0.546989 15.4697 0.182206 15.9279 0.182206H17.6657ZM8.10295 0.181885C8.56113 0.181885 8.93313 0.546668 8.93313 0.997031C8.93313 1.44632 8.56222 1.81111 8.10295 1.81111L6.32585 1.81218C4.85095 1.81432 3.65095 2.99211 3.65095 4.43947V6.46771C3.65095 6.91701 3.27785 7.28286 2.81967 7.28286C2.36149 7.28286 1.98949 6.91701 1.98949 6.46771V4.43947C1.98949 2.09459 3.93458 0.185094 6.32476 0.182955L8.10295 0.181885Z" fill="#6F65CA"/>
</svg>
